# xmcd
#
# Track frame offsets:
#  150
#  20825
#  35472
#  54097
#  73131
#  99669
#  122048
#  137923
#  162616
#  180762
#
# Disc length: 2695 seconds
#
# Revision: 0
# Processed by: cddbd v1.4PL0 Copyright (c) Steve Scherf et al.
# Submitted via: AltoMP3_Maker 3.0
#
DISCID=880a850a
DTITLE=Radjkoemar Lachman - Exotic Presents Radjkoemar Lachman
DYEAR=1900
DGENRE=
TTITLE0=Chali Naache
TTITLE1=Tune Churaya
TTITLE2=Kahe Kare Shaam
TTITLE3=Mere Piyase Kehde
TTITLE4=Gageriya
TTITLE5=Dayanidhi
TTITLE6=Batade Sakhi
TTITLE7=Rowat Ram
TTITLE8=Ab To Garam Hoi
TTITLE9=Phool Kyaa
EXTD=
EXTT0=
EXTT1=
EXTT2=
EXTT3=
EXTT4=
EXTT5=
EXTT6=
EXTT7=
EXTT8=
EXTT9=
PLAYORDER=
